<!DOCTYPE svg PUBLIC "-//W3C//DTD SVG 20010904//EN" "http://www.w3.org/TR/2001/REC-SVG-20010904/DTD/svg10.dtd">
<svg version="1.0" xmlns="http://www.w3.org/2000/svg" width="600px" height="600px" viewBox="0 0 6000 6000" preserveAspectRatio="xMidYMid meet">
<g id="layer1" fill="#fefefe" stroke="none">
 <path d="M2631 5843 c-12 -24 -15 -56 -4 -67 4 -4 6 -24 4 -45 -1 -24 3 -42 13 -50 10 -8 16 -29 16 -53 0 -25 5 -41 15 -44 9 -4 15 -19 15 -38 0 -17 7 -59 16 -91 38 -144 59 -263 55 -326 -2 -29 4 -59 14 -79 9 -18 16 -51 16 -74 -2 -48 -2 -111 -2 -145 1 -14 7 -34 14 -45 17 -27 23 -261 8 -271 -16 -10 -13 -75 3 -81 12 -5 14 -30 11 -137 -7 -225 -17 -377 -26 -383 -5 -3 -9 -38 -8 -78 1 -67 -12 -136 -31 -161 -4 -5 -11 -29 -15 -52 -3 -22 -14 -48 -23 -56 -22 -19 -277 -33 -297 -17 -16 13 -68 15 -107 5 -19 -5 -31 -2 -47 14 -18 18 -33 21 -99 21 -64 0 -88 5 -128 25 -27 14 -57 25 -67 25 -22 0 -111 26 -152 45 -16 7 -73 26 -125 40 -52 15 -113 35 -135 45 -40 18 -90 32 -200 56 -83 19 -323 17 -378 -2 -23 -8 -47 -22 -54 -30 -6 -9 -26 -23 -44 -32 -45 -23 -86 -85 -100 -152 -6 -30 -17 -62 -24 -70 -9 -11 -13 -58 -14 -164 0 -88 -5 -154 -11 -160 -5 -5 -10 -24 -10 -42 0 -17 -9 -43 -20 -57 -13 -16 -19 -38 -18 -64 0 -21 -6 -50 -15 -63 -9 -14 -19 -53 -23 -88 -3 -34 -10 -65 -15 -68 -5 -2 -11 -27 -15 -54 -4 -29 -14 -56 -25 -66 -11 -9 -19 -23 -19 -31 0 -8 -7 -27 -15 -44 -23 -43 -64 -210 -68 -271 -2 -29 -6 -58 -9 -63 -18 -30 -29 -111 -34 -247 -5 -132 -2 -165 15 -241 12 -48 21 -102 21 -119 0 -17 6 -39 14 -47 8 -9 21 -36 29 -61 30 -88 55 -136 102 -190 26 -30 55 -57 64 -59 9 -1 30 -13 46 -26 74 -55 110 -66 223 -66 92 -1 115 3 164 23 69 30 208 152 208 184 0 12 13 50 30 85 47 101 59 192 65 509 3 179 11 320 21 380 25 156 99 346 144 370 10 5 23 25 30 44 13 41 112 136 160 154 138 53 193 63 355 64 117 1 493 -7 543 -12 1 0 -2 -9 -8 -19 -11 -22 -42 -232 -35 -239 3 -3 -2 -13 -10 -22 -15 -17 -33 -207 -40 -415 -2 -44 -9 -100 -15 -125 -7 -25 -12 -63 -11 -85 0 -22 -4 -92 -9 -155 -6 -63 -12 -233 -15 -377 -2 -143 -7 -272 -10 -285 -3 -12 1 -60 8 -106 8 -46 13 -91 10 -101 -8 -29 15 -96 50 -148 18 -26 41 -68 51 -92 41 -104 134 -198 253 -258 70 -35 75 -35 195 -37 139 -1 171 6 310 74 115 55 245 179 301 286 20 40 37 79 37 87 0 8 6 17 13 20 8 3 24 38 37 79 13 40 27 80 30 88 11 24 50 193 50 216 0 11 7 35 15 51 9 19 15 53 13 85 -1 29 4 116 11 193 6 77 16 196 21 265 5 69 15 195 21 280 16 194 16 175 -12 820 -6 140 -12 289 -14 331 -1 42 -7 96 -13 120 -6 24 -19 104 -27 176 -9 73 -20 156 -25 184 -6 28 -8 55 -5 59 2 4 28 1 57 -8 36 -10 133 -17 303 -22 227 -6 256 -9 310 -30 33 -13 64 -29 68 -36 4 -8 14 -14 21 -14 20 0 53 -41 77 -95 28 -61 37 -217 20 -345 -5 -47 -15 -123 -21 -170 -10 -82 -35 -202 -65 -305 -8 -27 -20 -86 -28 -130 -8 -44 -19 -89 -24 -100 -6 -11 -16 -56 -22 -100 -6 -44 -16 -114 -21 -155 -6 -41 -17 -102 -25 -135 -19 -79 -24 -618 -6 -685 56 -210 186 -486 245 -517 31 -16 103 -36 188 -52 92 -17 245 1 302 34 28 17 46 34 46 45 0 11 5 22 10 25 22 13 62 89 77 144 32 119 52 218 53 256 0 22 6 49 14 60 10 16 11 37 4 100 -10 85 -4 387 12 650 15 225 22 1176 11 1315 -6 63 -19 142 -30 175 -48 144 -79 222 -102 255 -45 65 -111 145 -128 154 -9 5 -43 31 -76 58 -33 26 -66 48 -73 48 -8 0 -31 9 -51 19 -49 27 -197 71 -235 71 -17 0 -47 5 -66 10 -19 6 -89 17 -155 26 -99 13 -123 19 -136 36 -11 14 -22 19 -34 15 -9 -4 -22 -4 -28 0 -18 11 -110 42 -127 43 -8 0 -27 6 -42 14 -15 8 -40 17 -57 21 -17 4 -33 11 -36 16 -4 5 -18 9 -32 9 -14 0 -46 11 -72 24 -72 36 -211 99 -246 110 -44 14 -61 43 -103 172 -23 72 -42 140 -42 152 0 11 -4 24 -10 27 -5 3 -10 16 -10 27 0 12 -6 29 -13 37 -19 21 -67 156 -67 185 0 13 -6 29 -14 35 -8 7 -17 28 -21 48 -7 41 -39 108 -55 118 -5 3 -10 19 -10 35 0 16 -5 41 -10 55 -8 21 -16 26 -38 23 -26 -3 -27 -5 -24 -53 4 -61 20 -146 68 -370 21 -93 38 -195 39 -225 1 -35 10 -69 23 -92 12 -21 19 -45 16 -53 -4 -8 1 -30 9 -48 9 -18 21 -62 26 -97 6 -36 29 -153 51 -262 22 -108 51 -274 66 -370 14 -95 34 -231 45 -303 11 -71 26 -166 34 -210 8 -44 19 -159 25 -255 22 -407 32 -600 33 -680 3 -118 -12 -531 -23 -670 -6 -63 -15 -180 -20 -260 -6 -80 -16 -156 -22 -170 -6 -14 -12 -69 -13 -123 -2 -53 -7 -103 -12 -110 -5 -6 -18 -43 -27 -82 -21 -84 -33 -122 -51 -155 -7 -14 -16 -40 -20 -58 -3 -18 -15 -37 -26 -42 -10 -6 -19 -19 -19 -28 0 -23 -126 -152 -149 -152 -10 0 -29 -10 -43 -23 -53 -48 -101 -66 -179 -67 -149 -2 -244 48 -316 165 -24 38 -49 87 -57 110 -7 22 -18 56 -25 75 -18 56 -35 339 -20 356 9 11 8 23 -3 51 -20 51 -18 407 2 439 8 13 10 28 5 40 -15 34 -14 216 2 359 24 215 24 219 39 228 9 5 13 37 13 120 0 61 7 153 16 202 9 50 25 171 35 269 11 99 24 184 30 190 5 5 10 38 10 73 0 52 3 64 20 73 24 13 25 28 5 50 -12 14 -13 42 -4 200 5 102 15 196 21 210 11 24 17 87 11 102 -2 4 -5 149 -6 323 -2 228 -6 318 -15 327 -7 7 -12 35 -12 63 -1 66 -25 233 -45 315 -9 36 -20 88 -25 115 -16 96 -48 220 -70 280 -13 33 -26 87 -29 120 -4 41 -14 70 -29 89 -12 16 -22 39 -22 52 0 12 -11 35 -24 50 -23 28 -23 28 -35 7z m1198 -1140 c53 -25 112 -54 131 -63 19 -10 49 -24 65 -33 17 -9 61 -25 100 -37 38 -12 75 -26 81 -31 7 -5 40 -14 74 -20 62 -10 206 -54 225 -69 6 -4 26 -11 45 -14 19 -4 62 -13 95 -21 33 -7 87 -19 120 -25 64 -13 139 -35 220 -66 48 -18 165 -119 165 -142 0 -6 23 -40 50 -76 28 -36 50 -71 50 -78 0 -7 7 -21 15 -32 8 -10 17 -39 20 -65 4 -25 10 -55 15 -66 10 -24 17 -91 25 -240 8 -142 8 -165 -3 -179 -11 -13 -7 -291 4 -320 4 -10 1 -35 -6 -55 -9 -24 -13 -74 -12 -150 2 -66 -2 -118 -8 -126 -10 -12 -17 -331 -7 -341 3 -3 -6 -30 -19 -61 -23 -52 -25 -66 -25 -241 -1 -245 -35 -671 -58 -733 -37 -96 -117 -170 -186 -169 -48 1 -103 38 -154 106 -28 38 -51 75 -51 84 0 9 -4 20 -8 25 -18 20 -61 174 -81 287 -18 100 -20 142 -15 280 3 90 12 219 19 288 13 110 22 162 55 335 4 22 14 60 23 85 8 25 18 65 22 90 7 52 12 76 59 295 54 250 69 389 56 515 -22 218 -43 278 -128 368 -104 110 -271 147 -499 111 -171 -26 -244 -31 -346 -24 -67 4 -110 11 -112 19 -11 40 -39 220 -41 266 -2 30 -8 64 -13 75 -6 11 -22 72 -36 135 -14 63 -28 125 -31 138 -4 12 -3 22 1 22 5 0 51 -21 104 -47z m-2355 -1028 c65 -14 123 -28 130 -33 6 -5 24 -12 41 -16 16 -4 48 -16 72 -27 23 -10 48 -19 55 -19 7 -1 51 -14 98 -31 92 -34 142 -45 265 -60 44 -5 107 -15 140 -22 80 -16 312 -10 393 10 36 8 68 11 72 7 9 -10 -5 -158 -21 -217 -5 -20 -8 -41 -5 -45 3 -5 -1 -26 -9 -48 -16 -46 -11 -46 -190 -4 -255 60 -344 74 -485 74 -142 0 -235 -16 -312 -55 -69 -35 -167 -110 -218 -167 -63 -70 -145 -200 -164 -261 -89 -283 -106 -400 -105 -731 2 -307 -15 -391 -100 -497 -97 -121 -210 -124 -325 -8 -34 34 -66 77 -73 96 -6 18 -21 60 -32 91 -12 32 -23 74 -25 95 -3 21 -8 65 -11 98 -10 85 11 337 28 347 10 5 13 28 12 80 -1 40 4 90 11 110 7 20 23 79 34 130 12 51 31 122 41 158 70 246 81 308 108 581 14 149 32 253 49 288 20 41 47 60 131 88 56 18 80 21 171 17 58 -3 158 -16 224 -29z"/>
 <path d="M1360 1267 c-40 -20 -32 -42 18 -45 46 -3 65 16 42 43 -15 18 -27 19 -60 2z"/>
 <path d="M554 1057 c-9 -25 34 -107 57 -107 27 0 31 17 15 70 -11 37 -18 46 -40 48 -16 2 -28 -2 -32 -11z"/>
 <path d="M4895 831 c-10 -17 17 -25 80 -25 33 0 66 4 73 8 26 16 -2 26 -73 26 -41 0 -76 -4 -80 -9z"/>
 </g>

</svg>